# xmcd
# 
# Track frame offsets:
#     150
#     50370
#     104221
#     155761
# 
# Disc length: 2716
# 
# Revision: 2
# Processed by: cddbd v1.5.2PL0 Copyright (c) Steve Scherf et al.
# Submitted via: fre:ac v1.0.17
# 
DISCID=340a9a04
DTITLE=Die Oktonauten - Vol 1 und der Walhai
DYEAR=2013
DGENRE=Hörspiel Kinder
TTITLE0=01_und die Dekorateurkrabbe
TTITLE1=02_und der Walhai
TTITLE2=03_und die Rettung aus dem Kelpwald
TTITLE3=04_und die Schatzkarte
EXTD=
EXTT0=
EXTT1=
EXTT2=
EXTT3=
PLAYORDER=
